<svg xmlns="http://www.w3.org/2000/svg" viewBox="0 0 150 16"><defs><style>.cls-1{fill:#ffffff;}</style></defs><title>Asset 1</title><g id="Layer_2" data-name="Layer 2"><g id="Layer_2-2" data-name="Layer 2"><path class="cls-1" d="M61.07,10.17c1.3-.73,2-.91,4.61-1h2.13V6.26H65.68a9.47,9.47,0,0,0-4.61.84V3.49h8.75V.54H58.22v15H70.3v-3H61.07Z"/><polygon class="cls-1" points="24.68 6.44 20.77 0.54 17.1 0.54 23.25 9.5 23.25 15.52 26.15 15.52 26.15 9.5 32.25 0.54 28.7 0.54 24.68 6.44"/><polygon class="cls-1" points="0 3.55 5.33 3.55 5.33 15.52 8.28 15.52 8.28 3.55 13.79 3.55 13.79 0.54 0 0.54 0 3.55"/><path class="cls-1" d="M47.16.54H37.81v15h2.9V11c1.24-.66,1.89-.84,4.62-.84h1.3c3.31,0,5.32-1.87,5.32-4.82A4.51,4.51,0,0,0,47.16.54Zm-.53,6.62h-1.3A9.51,9.51,0,0,0,40.71,8V3.55h5.92c1.18,0,2.3.3,2.3,1.74C48.93,6.92,48.05,7.16,46.63,7.16Z"/><path class="cls-1" d="M125,6c-2.84,0-3.19-.61-3.19-1.51s1.53-1.62,3-1.62a6.58,6.58,0,0,1,4.38,1.32l2-2.29A10.75,10.75,0,0,0,124.73,0c-3.25,0-6.09,1.8-6.09,4.51,0,3.25,2.54,4.45,6.09,4.45,3.08,0,4.56.24,4.56,1.63,0,1.56-1.89,2.4-4.56,2.4s-3.66-1.5-4.55-2.46l-2.13,2.16a9,9,0,0,0,6.68,3.19c4.2,0,7.46-1.68,7.46-5.29C132.19,8.18,131.24,6,125,6Z"/><path class="cls-1" d="M84.32.06C79.88.06,75.62,3,75.62,8s4.2,8,8.64,8a10,10,0,0,0,4.79-1.26,4.62,4.62,0,0,0,2.43,1L93,13.17a3.56,3.56,0,0,1-1.54-.48A7.88,7.88,0,0,0,93,7.88C93,2.71,88.7.06,84.32.06ZM88.93,11a5.94,5.94,0,0,0-3.07-1.63L84.38,12a4.1,4.1,0,0,1,1.77.72h.06a5,5,0,0,1-1.89.3c-2.84,0-5.68-1.5-5.68-4.93s2.78-4.93,5.62-4.93,5.8,1.44,5.8,4.81A4.39,4.39,0,0,1,88.93,11Z"/><polygon class="cls-1" points="136.21 0.54 136.21 3.55 141.54 3.55 141.54 15.52 144.44 15.52 144.44 3.55 150 3.55 150 0.54 136.21 0.54"/><path class="cls-1" d="M103,.24,104,2.11l-7,13.47H100l.06-.18c.47-.66,4.26-2.11,7.87-2.11h1.77l1.19,2.23h3.19L106.15.24Zm5,10.29a12.36,12.36,0,0,0-5.92,1.32L105.56,5l2.84,5.54Z"/></g></g></svg>